<?xml version="1.0" encoding="UTF-8" standalone="no"?>
<svg xmlns="http://www.w3.org/2000/svg" width="200.000mm" height="24.314mm"
     viewBox="-10.000 -28.636 220.000 44.314" version="1.1">
  <title>Clark Y 11.7% (UIUC) chord 200.0 mm — single CLOSED path</title>
  <g fill="none" stroke="black" stroke-width="0.3" stroke-linejoin="round" stroke-linecap="round">
    <path d="M 200.0000,-0.0000 L 199.1440,-0.2300 L 196.5920,-0.8960 L 192.3880,-1.9440 L 186.6020,-3.3120 L 179.3360,-4.9500 L 170.7100,-6.8000 L 160.8760,-8.7880 L 150.0000,-10.8240 L 138.2680,-12.8100 L 125.8820,-14.6380 L 113.0520,-16.2100 L 100.0000,-17.4380 L 86.9480,-18.2560 L 74.1180,-18.6240 L 67.8560,-18.6360 L 61.7320,-18.5320 L 55.7720,-18.3160 L 50.0000,-17.9920 L 44.4420,-17.5480 L 39.1240,-16.9660 L 34.0660,-16.2260 L 29.2900,-15.3200 L 24.8160,-14.2680 L 20.6640,-13.1040 L 16.8540,-11.8780 L 13.3980,-10.6260 L 10.3120,-9.3540 L 7.6120,-8.0540 L 5.3060,-6.7040 L 3.4080,-5.3040 L 1.9220,-3.8860 L 0.8560,-2.5080 L 0.2140,-1.2320 L 0.0000,-0.0940 L 199.1440,0.0500 L 196.5920,0.1880 L 192.3880,0.3800 L 186.6020,0.6040 L 179.3360,0.8580 L 170.7100,1.1500 L 160.8760,1.4820 L 150.0000,1.8560 L 138.2680,2.2620 L 125.8820,2.6900 L 113.0520,3.1320 L 100.0000,3.5840 L 86.9480,4.0360 L 74.1180,4.4840 L 67.8560,4.7020 L 61.7320,4.9160 L 55.7720,5.1180 L 50.0000,5.3060 L 44.4420,5.4680 L 39.1240,5.5900 L 34.0660,5.6640 L 29.2900,5.6780 L 24.8160,5.6320 L 20.6640,5.5260 L 16.8540,5.3600 L 13.3980,5.1340 L 10.3120,4.8280 L 7.6120,4.4280 L 5.3060,3.9180 L 3.4080,3.3020 L 1.9220,2.5920 L 0.8560,1.7960 L 0.2140,0.9060 L 0.0000,-0.0940 Z" />
    <line x1="0" y1="0" x2="200.0" y2="0" stroke="gray" stroke-width="0.15" stroke-dasharray="3,2"/>
  </g>
</svg>